{
  "accessors": [
    {
      "bufferView": 2,
      "componentType": 5126,
      "count": 410,
      "max": [
        7.5632171630859375,
        -0.6101449728012085,
        7.0
      ],
      "min": [
        6.9967851638793945,
        -1.0003670454025269,
        -0.008085000328719616
      ],
      "type": "VEC3"
    },
    {
      "bufferView": 2,
      "byteOffset": 4920,
      "componentType": 5126,
      "count": 410,
      "max": [
        1.0,
        1.0,
        1.0
      ],
      "min": [
        -1.0,
        -1.0,
        -1.0
      ],
      "type": "VEC3"
    },
    {
      "bufferView": 3,
      "componentType": 5126,
      "count": 410,
      "max": [
        0.9999978542327881,
        0.9997817873954773,
        0.9999716877937317,
        1.0
      ],
      "min": [
        -1.0,
        -0.999995231628418,
        -0.9999721050262451,
        1.0
      ],
      "type": "VEC4"
    },
    {
      "bufferView": 1,
      "componentType": 5126,
      "count": 410,
      "max": [
        0.9429090023040771,
        0.9623209834098816
      ],
      "min": [
        0.019432999193668365,
        0.008053000085055828
      ],
      "type": "VEC2"
    },
    {
      "bufferView": 0,
      "componentType": 5125,
      "count": 831,
      "type": "SCALAR"
    },
    {
      "bufferView": 2,
      "byteOffset": 9840,
      "componentType": 5126,
      "count": 121,
      "max": [
        5.0,
        1.0,
        0.0
      ],
      "min": [
        1.0,
        -3.0,
        0.0
      ],
      "type": "VEC3"
    },
    {
      "bufferView": 2,
      "byteOffset": 11292,
      "componentType": 5126,
      "count": 121,
      "max": [
        0.0,
        -0.0,
        1.0
      ],
      "min": [
        0.0,
        -0.0,
        1.0
      ],
      "type": "VEC3"
    },
    {
      "bufferView": 3,
      "byteOffset": 6560,
      "componentType": 5126,
      "count": 121,
      "max": [
        1.0,
        0.0,
        0.0,
        1.0
      ],
      "min": [
        1.0,
        0.0,
        0.0,
        1.0
      ],
      "type": "VEC4"
    },
    {
      "bufferView": 1,
      "byteOffset": 3280,
      "componentType": 5126,
      "count": 121,
      "max": [
        0.974947988986969,
        0.974947988986969
      ],
      "min": [
        0.02505199983716011,
        0.02505199983716011
      ],
      "type": "VEC2"
    },
    {
      "bufferView": 0,
      "byteOffset": 3324,
      "componentType": 5125,
      "count": 600,
      "type": "SCALAR"
    },
    {
      "bufferView": 2,
      "byteOffset": 12744,
      "componentType": 5126,
      "count": 340,
      "max": [
        11.157410621643066,
        -8.387543678283691,
        5.353875160217285
      ],
      "min": [
        2.847311019897461,
        -8.6709566116333,
        5.070462226867676
      ],
      "type": "VEC3"
    },
    {
      "bufferView": 2,
      "byteOffset": 16824,
      "componentType": 5126,
      "count": 340,
      "max": [
        1.0,
        1.0,
        1.0
      ],
      "min": [
        -1.0,
        -1.0,
        -1.0
      ],
      "type": "VEC3"
    },
    {
      "bufferView": 3,
      "byteOffset": 8496,
      "componentType": 5126,
      "count": 340,
      "max": [
        0.37318378686904907,
        0.9999624490737915,
        1.0,
        1.0
      ],
      "min": [
        -0.29275286197662354,
        -0.9999632239341736,
        -0.9985997676849365,
        1.0
      ],
      "type": "VEC4"
    },
    {
      "bufferView": 1,
      "byteOffset": 4248,
      "componentType": 5126,
      "count": 340,
      "max": [
        0.9969859719276428,
        0.968970000743866
      ],
      "min": [
        0.006792000029236078,
        0.039737001061439514
      ],
      "type": "VEC2"
    },
    {
      "bufferView": 0,
      "byteOffset": 5724,
      "componentType": 5125,
      "count": 564,
      "type": "SCALAR"
    },
    {
      "bufferView": 2,
      "byteOffset": 20904,
      "componentType": 5126,
      "count": 645,
      "max": [
        10.0,
        -0.8059989809989929,
        0.7057710289955139
      ],
      "min": [
        9.294228553771973,
        -1.0,
        0.0
      ],
      "type": "VEC3"
    },
    {
      "bufferView": 2,
      "byteOffset": 28644,
      "componentType": 5126,
      "count": 645,
      "max": [
        1.0,
        1.0,
        1.0
      ],
      "min": [
        -1.0,
        -1.0,
        -1.0
      ],
      "type": "VEC3"
    },
    {
      "bufferView": 3,
      "byteOffset": 13936,
      "componentType": 5126,
      "count": 645,
      "max": [
        1.0,
        0.9999129176139832,
        0.9999980330467224,
        1.0
      ],
      "min": [
        -1.0,
        -0.9999977350234985,
        -0.9999988675117493,
        1.0
      ],
      "type": "VEC4"
    },
    {
      "bufferView": 1,
      "byteOffset": 6968,
      "componentType": 5126,
      "count": 645,
      "max": [
        0.9776639938354492,
        0.9844080209732056
      ],
      "min": [
        0.014582999981939793,
        0.02884100005030632
      ],
      "type": "VEC2"
    },
    {
      "bufferView": 0,
      "byteOffset": 7980,
      "componentType": 5125,
      "count": 1170,
      "type": "SCALAR"
    },
    {
      "bufferView": 2,
      "byteOffset": 36384,
      "componentType": 5126,
      "count": 216,
      "max": [
        7.573355197906494,
        -0.6396369934082031,
        7.0
      ],
      "min": [
        6.986647129058838,
        -1.0003670454025269,
        -0.018223000690340996
      ],
      "type": "VEC3"
    },
    {
      "bufferView": 2,
      "byteOffset": 38976,
      "componentType": 5126,
      "count": 216,
      "max": [
        1.0,
        1.0,
        1.0
      ],
      "min": [
        -1.0,
        -1.0,
        -1.0
      ],
      "type": "VEC3"
    },
    {
      "bufferView": 3,
      "byteOffset": 24256,
      "componentType": 5126,
      "count": 216,
      "max": [
        0.9999973773956299,
        0.9999671578407288,
        0.10466400533914566,
        1.0
      ],
      "min": [
        -0.9999977946281433,
        -0.9999900460243225,
        -0.18104442954063416,
        1.0
      ],
      "type": "VEC4"
    },
    {
      "bufferView": 1,
      "byteOffset": 12128,
      "componentType": 5126,
      "count": 216,
      "max": [
        0.9808859825134277,
        0.9931550025939941
      ],
      "min": [
        0.023594999685883522,
        0.03953399881720543
      ],
      "type": "VEC2"
    },
    {
      "bufferView": 0,
      "byteOffset": 12660,
      "componentType": 5125,
      "count": 450,
      "type": "SCALAR"
    },
    {
      "bufferView": 2,
      "byteOffset": 41568,
      "componentType": 5126,
      "count": 7644,
      "max": [
        9.12685489654541,
        -5.0,
        8.0
      ],
      "min": [
        4.62314510345459,
        -9.75,
        0.0
      ],
      "type": "VEC3"
    },
    {
      "bufferView": 2,
      "byteOffset": 133296,
      "componentType": 5126,
      "count": 7644,
      "max": [
        1.0,
        1.0,
        1.0
      ],
      "min": [
        -1.0,
        -1.0,
        -1.0
      ],
      "type": "VEC3"
    },
    {
      "bufferView": 3,
      "byteOffset": 27712,
      "componentType": 5126,
      "count": 7644,
      "max": [
        1.0,
        1.0,
        1.0,
        1.0
      ],
      "min": [
        -1.0,
        -1.0,
        -1.0,
        1.0
      ],
      "type": "VEC4"
    },
    {
      "bufferView": 1,
      "byteOffset": 13856,
      "componentType": 5126,
      "count": 7644,
      "max": [
        1.0023670196533203,
        0.9867349863052368
      ],
      "min": [
        0.0,
        0.014162999577820301
      ],
      "type": "VEC2"
    },
    {
      "bufferView": 0,
      "byteOffset": 14460,
      "componentType": 5125,
      "count": 13560,
      "type": "SCALAR"
    }
  ],
  "asset": {
    "extras": {
      "author": "Kyle Rooze (https://sketchfab.com/KyleRooze)",
      "license": "CC-BY-4.0 (http://creativecommons.org/licenses/by/4.0/)",
      "source": "https://sketchfab.com/3d-models/gym-props-46da6b4b3a8e439e9192c76ca12fb176",
      "title": "Gym Props"
    },
    "generator": "Sketchfab-12.68.0",
    "version": "2.0"
  },
  "bufferViews": [
    {
      "buffer": 0,
      "byteLength": 68700,
      "name": "floatBufferViews",
      "target": 34963
    },
    {
      "buffer": 0,
      "byteLength": 75008,
      "byteOffset": 68700,
      "byteStride": 8,
      "name": "floatBufferViews",
      "target": 34962
    },
    {
      "buffer": 0,
      "byteLength": 225024,
      "byteOffset": 143708,
      "byteStride": 12,
      "name": "floatBufferViews",
      "target": 34962
    },
    {
      "buffer": 0,
      "byteLength": 150016,
      "byteOffset": 368732,
      "byteStride": 16,
      "name": "floatBufferViews",
      "target": 34962
    }
  ],
  "buffers": [
    {
      "byteLength": 518748,
      "uri": "scene.bin"
    }
  ],
  "images": [
    {
      "uri": "textures/StingrayPBS1SG_baseColor.png"
    },
    {
      "uri": "textures/StingrayPBS1SG_metallicRoughness.png"
    },
    {
      "uri": "textures/StingrayPBS1SG_normal.png"
    },
    {
      "uri": "textures/StingrayPBS2SG_baseColor.png"
    },
    {
      "uri": "textures/StingrayPBS2SG_metallicRoughness.png"
    },
    {
      "uri": "textures/StingrayPBS2SG_normal.png"
    },
    {
      "uri": "textures/StingrayPBS3SG_baseColor.png"
    },
    {
      "uri": "textures/StingrayPBS3SG_metallicRoughness.png"
    },
    {
      "uri": "textures/StingrayPBS3SG_normal.png"
    },
    {
      "uri": "textures/StingrayPBS4SG_baseColor.png"
    },
    {
      "uri": "textures/StingrayPBS4SG_metallicRoughness.png"
    },
    {
      "uri": "textures/StingrayPBS4SG_normal.png"
    },
    {
      "uri": "textures/StingrayPBS5SG_baseColor.png"
    },
    {
      "uri": "textures/StingrayPBS5SG_metallicRoughness.png"
    },
    {
      "uri": "textures/StingrayPBS5SG_normal.png"
    }
  ],
  "materials": [
    {
      "doubleSided": true,
      "name": "StingrayPBS1SG",
      "normalTexture": {
        "index": 2
      },
      "pbrMetallicRoughness": {
        "baseColorTexture": {
          "index": 0
        },
        "metallicRoughnessTexture": {
          "index": 1
        }
      }
    },
    {
      "doubleSided": true,
      "name": "StingrayPBS2SG",
      "normalTexture": {
        "index": 5
      },
      "pbrMetallicRoughness": {
        "baseColorTexture": {
          "index": 3
        },
        "metallicRoughnessTexture": {
          "index": 4
        }
      }
    },
    {
      "doubleSided": true,
      "name": "StingrayPBS3SG",
      "normalTexture": {
        "index": 8
      },
      "pbrMetallicRoughness": {
        "baseColorTexture": {
          "index": 6
        },
        "metallicRoughnessTexture": {
          "index": 7
        }
      }
    },
    {
      "doubleSided": true,
      "name": "StingrayPBS4SG",
      "normalTexture": {
        "index": 11
      },
      "pbrMetallicRoughness": {
        "baseColorTexture": {
          "index": 9
        },
        "metallicRoughnessTexture": {
          "index": 10
        }
      }
    },
    {
      "doubleSided": true,
      "name": "StingrayPBS5SG",
      "normalTexture": {
        "index": 14
      },
      "pbrMetallicRoughness": {
        "baseColorTexture": {
          "index": 12
        },
        "metallicRoughnessTexture": {
          "index": 13
        }
      }
    }
  ],
  "meshes": [
    {
      "name": "Object_0",
      "primitives": [
        {
          "attributes": {
            "NORMAL": 1,
            "POSITION": 0,
            "TANGENT": 2,
            "TEXCOORD_0": 3
          },
          "indices": 4,
          "material": 1,
          "mode": 4
        }
      ]
    },
    {
      "name": "Object_1",
      "primitives": [
        {
          "attributes": {
            "NORMAL": 6,
            "POSITION": 5,
            "TANGENT": 7,
            "TEXCOORD_0": 8
          },
          "indices": 9,
          "material": 2,
          "mode": 4
        }
      ]
    },
    {
      "name": "Object_2",
      "primitives": [
        {
          "attributes": {
            "NORMAL": 11,
            "POSITION": 10,
            "TANGENT": 12,
            "TEXCOORD_0": 13
          },
          "indices": 14,
          "material": 3,
          "mode": 4
        }
      ]
    },
    {
      "name": "Object_3",
      "primitives": [
        {
          "attributes": {
            "NORMAL": 16,
            "POSITION": 15,
            "TANGENT": 17,
            "TEXCOORD_0": 18
          },
          "indices": 19,
          "material": 0,
          "mode": 4
        }
      ]
    },
    {
      "name": "Object_4",
      "primitives": [
        {
          "attributes": {
            "NORMAL": 21,
            "POSITION": 20,
            "TANGENT": 22,
            "TEXCOORD_0": 23
          },
          "indices": 24,
          "material": 1,
          "mode": 4
        }
      ]
    },
    {
      "name": "Object_5",
      "primitives": [
        {
          "attributes": {
            "NORMAL": 26,
            "POSITION": 25,
            "TANGENT": 27,
            "TEXCOORD_0": 28
          },
          "indices": 29,
          "material": 4,
          "mode": 4
        }
      ]
    }
  ],
  "nodes": [
    {
      "children": [
        1
      ],
      "matrix": [
        1.0,
        0.0,
        0.0,
        0.0,
        0.0,
        2.220446049250313e-16,
        -1.0,
        0.0,
        0.0,
        1.0,
        2.220446049250313e-16,
        0.0,
        0.0,
        0.0,
        0.0,
        1.0
      ],
      "name": "Sketchfab_model"
    },
    {
      "children": [
        2,
        3,
        4,
        5,
        6,
        7
      ],
      "name": "FINALOBJ.obj.cleaner.materialmerger.gles"
    },
    {
      "mesh": 0,
      "name": "Object_2"
    },
    {
      "mesh": 1,
      "name": "Object_3"
    },
    {
      "mesh": 2,
      "name": "Object_4"
    },
    {
      "mesh": 3,
      "name": "Object_5"
    },
    {
      "mesh": 4,
      "name": "Object_6"
    },
    {
      "mesh": 5,
      "name": "Object_7"
    }
  ],
  "samplers": [
    {
      "magFilter": 9729,
      "minFilter": 9987,
      "wrapS": 10497,
      "wrapT": 10497
    }
  ],
  "scene": 0,
  "scenes": [
    {
      "name": "Sketchfab_Scene",
      "nodes": [
        0
      ]
    }
  ],
  "textures": [
    {
      "sampler": 0,
      "source": 0
    },
    {
      "sampler": 0,
      "source": 1
    },
    {
      "sampler": 0,
      "source": 2
    },
    {
      "sampler": 0,
      "source": 3
    },
    {
      "sampler": 0,
      "source": 4
    },
    {
      "sampler": 0,
      "source": 5
    },
    {
      "sampler": 0,
      "source": 6
    },
    {
      "sampler": 0,
      "source": 7
    },
    {
      "sampler": 0,
      "source": 8
    },
    {
      "sampler": 0,
      "source": 9
    },
    {
      "sampler": 0,
      "source": 10
    },
    {
      "sampler": 0,
      "source": 11
    },
    {
      "sampler": 0,
      "source": 12
    },
    {
      "sampler": 0,
      "source": 13
    },
    {
      "sampler": 0,
      "source": 14
    }
  ]
}
