{
  "accessors": [
    {
      "bufferView": 2,
      "componentType": 5126,
      "count": 1401,
      "max": [
        4.2232255935668945,
        2.7135238647460938,
        4.623582363128662
      ],
      "min": [
        -4.2232255935668945,
        -2.7135233879089355,
        -4.62358283996582
      ],
      "type": "VEC3"
    },
    {
      "bufferView": 2,
      "byteOffset": 16812,
      "componentType": 5126,
      "count": 1401,
      "max": [
        1.0,
        1.0,
        1.0
      ],
      "min": [
        -1.0,
        -1.0,
        -1.0
      ],
      "type": "VEC3"
    },
    {
      "bufferView": 3,
      "componentType": 5126,
      "count": 1401,
      "max": [
        0.9999995827674866,
        0.9992664456367493,
        0.9979623556137085,
        1.0
      ],
      "min": [
        -0.9999991059303284,
        -0.9996365904808044,
        -0.9976974129676819,
        1.0
      ],
      "type": "VEC4"
    },
    {
      "bufferView": 1,
      "componentType": 5126,
      "count": 1401,
      "max": [
        0.9920458197593689,
        0.9935828447341919
      ],
      "min": [
        0.004435313865542412,
        0.2516527771949768
      ],
      "type": "VEC2"
    },
    {
      "bufferView": 1,
      "byteOffset": 11208,
      "componentType": 5126,
      "count": 1401,
      "max": [
        0.9920458197593689,
        0.9935828447341919
      ],
      "min": [
        0.004435313865542412,
        0.2516527771949768
      ],
      "type": "VEC2"
    },
    {
      "bufferView": 1,
      "byteOffset": 22416,
      "componentType": 5126,
      "count": 1401,
      "max": [
        0.9920458197593689,
        0.9935828447341919
      ],
      "min": [
        0.004435313865542412,
        0.2516527771949768
      ],
      "type": "VEC2"
    },
    {
      "bufferView": 0,
      "componentType": 5125,
      "count": 7362,
      "type": "SCALAR"
    }
  ],
  "asset": {
    "extras": {
      "author": "plaggy (https://sketchfab.com/plaggy)",
      "license": "CC-BY-4.0 (http://creativecommons.org/licenses/by/4.0/)",
      "source": "https://sketchfab.com/3d-models/cc0-kettlebell-801a68fa3ed449258bac6ee023446c15",
      "title": "CC0 - Kettlebell"
    },
    "generator": "Sketchfab-15.0.0",
    "version": "2.0"
  },
  "bufferViews": [
    {
      "buffer": 0,
      "byteLength": 29448,
      "name": "floatBufferViews",
      "target": 34963
    },
    {
      "buffer": 0,
      "byteLength": 33624,
      "byteOffset": 29448,
      "byteStride": 8,
      "name": "floatBufferViews",
      "target": 34962
    },
    {
      "buffer": 0,
      "byteLength": 33624,
      "byteOffset": 63072,
      "byteStride": 12,
      "name": "floatBufferViews",
      "target": 34962
    },
    {
      "buffer": 0,
      "byteLength": 22416,
      "byteOffset": 96696,
      "byteStride": 16,
      "name": "floatBufferViews",
      "target": 34962
    }
  ],
  "buffers": [
    {
      "byteLength": 119112,
      "uri": "scene.bin"
    }
  ],
  "images": [
    {
      "uri": "textures/Kettlebell_baseColor.png"
    },
    {
      "uri": "textures/Kettlebell_metallicRoughness.png"
    },
    {
      "uri": "textures/Kettlebell_normal.png"
    }
  ],
  "materials": [
    {
      "name": "Kettlebell",
      "normalTexture": {
        "index": 2
      },
      "occlusionTexture": {
        "index": 1
      },
      "pbrMetallicRoughness": {
        "baseColorTexture": {
          "index": 0
        },
        "metallicRoughnessTexture": {
          "index": 1
        }
      }
    }
  ],
  "meshes": [
    {
      "name": "Kettlebell_Kettlebell_0",
      "primitives": [
        {
          "attributes": {
            "NORMAL": 1,
            "POSITION": 0,
            "TANGENT": 2,
            "TEXCOORD_0": 3,
            "TEXCOORD_1": 4,
            "TEXCOORD_2": 5
          },
          "indices": 6,
          "material": 0,
          "mode": 4
        }
      ]
    }
  ],
  "nodes": [
    {
      "children": [
        1
      ],
      "matrix": [
        1.0,
        0.0,
        0.0,
        0.0,
        0.0,
        2.220446049250313e-16,
        -1.0,
        0.0,
        0.0,
        1.0,
        2.220446049250313e-16,
        0.0,
        0.0,
        0.0,
        0.0,
        1.0
      ],
      "name": "Sketchfab_model"
    },
    {
      "children": [
        2
      ],
      "matrix": [
        0.02539999969303608,
        0.0,
        0.0,
        0.0,
        0.0,
        0.0,
        0.02539999969303608,
        0.0,
        0.0,
        -0.02539999969303608,
        0.0,
        0.0,
        0.0,
        0.0,
        0.0,
        1.0
      ],
      "name": "09869839093046c4ad4abd1768c3331a.fbx"
    },
    {
      "children": [
        3
      ],
      "name": "RootNode"
    },
    {
      "children": [
        4
      ],
      "matrix": [
        1.0,
        0.0,
        0.0,
        0.0,
        0.0,
        2.220446049250313e-16,
        -1.0,
        0.0,
        0.0,
        1.0,
        2.220446049250313e-16,
        0.0,
        0.0,
        0.0,
        0.0,
        1.0
      ],
      "name": "Kettlebell"
    },
    {
      "mesh": 0,
      "name": "Kettlebell_Kettlebell_0"
    }
  ],
  "samplers": [
    {
      "magFilter": 9729,
      "minFilter": 9987,
      "wrapS": 10497,
      "wrapT": 10497
    }
  ],
  "scene": 0,
  "scenes": [
    {
      "name": "Sketchfab_Scene",
      "nodes": [
        0
      ]
    }
  ],
  "textures": [
    {
      "sampler": 0,
      "source": 0
    },
    {
      "sampler": 0,
      "source": 1
    },
    {
      "sampler": 0,
      "source": 2
    }
  ]
}
