<svg width="42" height="42" viewBox="0 0 42 42" fill="none" xmlns="http://www.w3.org/2000/svg">
  <path d="M20.96 7.58984C25.42 7.58984 25.95 7.60984 27.71 7.68984C29.34 7.75984 30.22 8.03984 30.81 8.26984C31.59 8.56984 32.15 8.93984 32.73 9.51984C33.31 10.0998 33.68 10.6598 33.98 11.4398C34.21 12.0298 34.48 12.9098 34.56 14.5398C34.64 16.2998 34.66 16.8298 34.66 21.2898C34.66 25.7498 34.64 26.2798 34.56 28.0398C34.49 29.6698 34.21 30.5498 33.98 31.1398C33.68 31.9198 33.31 32.4798 32.73 33.0598C32.15 33.6398 31.59 34.0098 30.81 34.3098C30.22 34.5398 29.34 34.8098 27.71 34.8898C25.95 34.9698 25.42 34.9898 20.96 34.9898C16.5 34.9898 15.97 34.9698 14.21 34.8898C12.58 34.8198 11.7 34.5398 11.11 34.3098C10.33 34.0098 9.77002 33.6398 9.19002 33.0598C8.61002 32.4798 8.24002 31.9198 7.94002 31.1398C7.71002 30.5498 7.44002 29.6698 7.36002 28.0398C7.28002 26.2798 7.26001 25.7498 7.26001 21.2898C7.26001 16.8298 7.28002 16.2998 7.36002 14.5398C7.43002 12.9098 7.71002 12.0298 7.94002 11.4398C8.24002 10.6598 8.61002 10.0998 9.19002 9.51984C9.77002 8.93984 10.33 8.56984 11.11 8.26984C11.7 8.03984 12.58 7.76984 14.21 7.68984C15.97 7.60984 16.5 7.58984 20.96 7.58984Z" stroke="white" strokeWidth="0.8" strokeLinecap="round" strokeLinejoin="round"/>
  <path d="M20.9601 27.6502C17.4501 27.6502 14.6001 24.8002 14.6001 21.2902C14.6001 17.7802 17.4501 14.9302 20.9601 14.9302C24.4701 14.9302 27.3201 17.7802 27.3201 21.2902C27.3201 24.8002 24.4701 27.6502 20.9601 27.6502Z" stroke="white" strokeWidth="0.8" strokeLinecap="round" strokeinejoin="round"/>
  <path d="M28.78 15.0302C29.7796 15.0302 30.59 14.2198 30.59 13.2202C30.59 12.2205 29.7796 11.4102 28.78 11.4102C27.7803 11.4102 26.97 12.2205 26.97 13.2202C26.97 14.2198 27.7803 15.0302 28.78 15.0302Z" stroke="white" strokeWidth="0.8" strokeLinecap="round" strokeLinejoin="round"/>
</svg>